<?xml version="1.0" encoding="utf-8"?>
<!-- Generator: Adobe Illustrator 23.0.1, SVG Export Plug-In . SVG Version: 6.00 Build 0)  -->
<svg version="1.1" id="Layer_1" xmlns="http://www.w3.org/2000/svg" xmlns:xlink="http://www.w3.org/1999/xlink" x="0px" y="0px"
	 width="36px" height="25px" viewBox="0 0 36 25" style="enable-background:new 0 0 36 25;" xml:space="preserve">
<g id="Batch_3">
	<g id="Account">
		<path d="M18,14.5c-3.5,0-6.3-2.1-6.3-4.7s2.8-4.7,6.3-4.7s6.3,2.1,6.3,4.7S21.5,14.5,18,14.5z M18,6.1c-2.9,0-5.2,1.6-5.2,3.7
			s2.3,3.7,5.2,3.7s5.2-1.6,5.2-3.7S20.9,6.1,18,6.1z"/>
		<path d="M18,1.1c2.3,0,4.6,0.3,6.7,0.9c1.9,0.5,3.8,1.4,5.4,2.5c1.4,0.9,2.6,2.2,3.5,3.6c1.7,2.6,1.7,5.9,0,8.4
			c-0.9,1.4-2.1,2.7-3.5,3.6c-1.7,1.1-3.5,2-5.4,2.5c-4.4,1.2-9,1.2-13.4,0c-1.9-0.5-3.8-1.4-5.4-2.5c-1.4-0.9-2.6-2.2-3.5-3.6
			c-1.7-2.6-1.7-5.9,0-8.4c0.9-1.4,2.1-2.7,3.5-3.6c1.7-1.1,3.5-2,5.4-2.5C13.5,1.4,15.7,1.1,18,1.1L18,1.1 M18,0
			C8.1,0,0,5.5,0,12.4s8.1,12.4,18,12.4s18-5.5,18-12.4S27.9,0,18,0z"/>
		<path d="M23.4,14.2c-0.3,0.2-0.6,0.4-0.9,0.6c1.1,0.8,1.8,2,1.9,3.4c0,0.1,0,0.8,0,0.9v0.2l1.1,0.1v-0.2c0-0.1,0-0.9,0-1
			C25.4,16.6,24.6,15.2,23.4,14.2z"/>
		<path d="M13.5,14.8c-0.3-0.2-0.6-0.4-0.9-0.6c-1.2,1-2,2.5-2.1,4c0,0.1,0,0.9,0,1v0.2l1.1-0.1v-0.2c0-0.1,0-0.8,0-0.9
			C11.6,16.8,12.3,15.6,13.5,14.8z"/>
	</g>
</g>
</svg>
