<?xml version="1.0" encoding="UTF-8"?><svg id="Layer_1" xmlns="http://www.w3.org/2000/svg" viewBox="0 0 80 80"><defs><style>.cls-1{fill:#fff;}</style></defs><g id="Deals_And_Offers"><path class="cls-1" d="M72.99872,43.42017l-17.98564-20.46094H7.00128v41.91426l1.08625,1.08546H55.01307l17.98564-20.46114v-2.07764Zm-18.90904,20.4979H9.04256V25.0001H54.08968l17.10494,19.45889-17.10494,19.45908Z"/><rect class="cls-1" x="57.82279" y="43.42234" width="4.26912" height="2.04127"/><path class="cls-1" d="M37.14792,45.28075c4.52328,.14328,6.28347,.67543,6.28346,2.21047,0,1.76018-2.74263,2.51746-6.28348,2.59932l.00002-4.80979Zm-7.63429-4.21626c0-1.4327,2.45609-2.21045,5.75133-2.31278l-.00002,4.64606c-3.99113-.20468-5.75132-.83916-5.75131-2.33327m15.96448,6.42673c.00001-2.90634-2.92681-3.84784-8.33018-4.03205l.00002-4.70746c2.70169,.18421,4.99402,1.02337,6.67234,2.31281l1.08478-1.26897v-.49121c-1.88299-1.2485-4.21626-2.16953-7.7571-2.31281v-1.73971s-1.88298,0-1.88298,0v1.73971c-5.21918,.16373-7.79807,1.78063-7.79808,4.15483-.00001,2.86541,3.09055,3.86831,7.79803,4.07299l-.00002,4.85073c-2.84496-.18421-5.36244-1.10524-7.12262-2.59935l-1.28945,1.20756v.49121c1.86252,1.39177,4.5642,2.49701,8.41206,2.68122v1.78065s1.88298,0,1.88298,0v-1.78065c5.56712-.14326,8.33022-1.76017,8.33024-4.3595"/></g></svg>