<?xml version="1.0" encoding="UTF-8"?><svg id="Layer_1" xmlns="http://www.w3.org/2000/svg" viewBox="0 0 80 80"><defs><style>.cls-1{fill:#fff;}</style></defs><g id="Batch_3"><g id="Parking_Assist_2"><polygon class="cls-1" points="73.21385 19.98311 68.25391 19.98311 68.25391 22.1088 72.15101 22.1088 73.21385 19.98311"/><polygon class="cls-1" points="63.64826 14.13748 63.64826 19.98311 57.62548 19.98311 56.73978 22.1088 63.64826 22.1088 63.64826 28.13158 65.77394 28.13158 65.77394 14.13748 63.64826 14.13748"/><path class="cls-1" d="M56.20836,59.6626H27.86587c0,.70856-.17714,1.41712-.35428,2.12569h29.05105c-.17714-.53142-.35428-1.23999-.35428-2.12569Z"/><path class="cls-1" d="M76.22524,45.13707l-17.89119-2.30283-14.87981-7.97133H16.17459l-11.15986,1.06284,.70856,1.23999,1.06284,.17714-3.54281,5.49136v11.69127l-1.06284,.70856v3.54281l2.47997,1.06284,1.77141,.8857,7.79418,1.23999c1.23998,3.18853,4.78279,4.60565,7.79418,3.36567,3.18853-1.23999,4.60566-4.7828,3.36567-7.79419-1.23998-3.18853-4.78279-4.60566-7.79418-3.36567-2.30283,.8857-3.71995,3.01139-3.89709,5.49135l-6.73134-.8857-1.41712-.70856-1.06284-.70856v-.8857h0l1.06284-.53142v-12.39984l3.18853-4.95993,.35428-.70856,7.08562-.70856h26.74823l14.34839,7.61704,.35428,.17714h.35428l16.29693,2.12569,1.23999,6.90848-.70856,4.7828-3.18853,1.06284h-1.06284c0-3.36567-2.65711-6.02278-6.02278-6.02278s-6.02278,2.65711-6.02278,6.02278,2.65711,6.02278,6.02278,6.02278c2.47997,0,4.7828-1.59427,5.6685-3.89709h1.94854l4.7828-1.59427,.8857-6.37706-1.59427-8.85703Zm-56.50784,10.80557c2.12569,0,3.89709,1.77141,3.89709,3.89709s-1.77141,3.89709-3.89709,3.89709-3.89709-1.77141-3.89709-3.89709h0c0-2.12569,1.7714-3.89709,3.89709-3.89709Zm44.81656,7.61704c-2.12569,0-3.89709-1.59427-3.89709-3.71995s1.59427-3.89709,3.71995-3.89709,3.89709,1.59427,3.89709,3.71995h0c0,2.12569-1.59427,3.89709-3.71995,3.89709h0Z"/></g></g></svg>